# xmcd
#
# Track frame offsets: 
#        150
#        14242
#        33507
#        52900
#        65905
#        81560
#        97170
#        112290
#        124845
#        142417
#        159177
#
# Disc length: 2611 seconds
#
# Revision: 2
# Processed by: cddbd v1.4PL0 Copyright (c) Steve Scherf et al.
# Submitted via: ExactAudioCopy v0.90b3
#
DISCID=ad0a310b
DTITLE=George Fox - Survivor
DYEAR=1900
DGENRE=Country
TTITLE0=I'm Gone
TTITLE1=Goodbye
TTITLE2=How Do I Get There From Her
TTITLE3=Do The Math
TTITLE4=Don't Listen To Your Heart
TTITLE5=Survivor
TTITLE6=Brand New Star
TTITLE7=Way Out In The Country
TTITLE8=Broken Heart String
TTITLE9=The Greenest Grass
TTITLE10=If Seeing Is Believing
EXTD=
EXTT0=
EXTT1=
EXTT2=
EXTT3=
EXTT4=
EXTT5=
EXTT6=
EXTT7=
EXTT8=
EXTT9=
EXTT10=
PLAYORDER=
